<?xml version="1.0" standalone="no"?><!DOCTYPE svg PUBLIC "-//W3C//DTD SVG 1.1//EN" "http://www.w3.org/Graphics/SVG/1.1/DTD/svg11.dtd">
<svg x="0.0000mm" y="0.0000mm" width="24.3420mm" height="26.4580mm" viewBox="0.0000 0.0000 24.3420 26.4580" version="1.1" xmlns="http://www.w3.org/2000/svg" shape-rendering="crispEdges">
<title>TBarCode - 11.11.0.16177</title>
<desc>BarCode licensed to MEM:TEC-IT Datenverarbeitung GmbH Internal License</desc>
<g fill="rgb(0%,0%,0%)">
</g>
<g fill="rgb(100%,100%,100%)">
<rect x="0.0000" y="0.0000" width="24.3420" height="26.4580" />
</g>
<g fill="rgb(0%,0%,0%)">
</g>
<g fill="rgb(0%,0%,0%)">
<rect x="0.0000" y="0.0000" width="1.0583" height="20.1864" />
<rect x="1.5875" y="0.0000" width="0.5292" height="20.1864" />
<rect x="3.1750" y="0.0000" width="0.5292" height="20.1864" />
<rect x="5.8209" y="0.0000" width="1.5875" height="20.1864" />
<rect x="8.4668" y="0.0000" width="1.0583" height="20.1864" />
<rect x="10.5835" y="0.0000" width="0.5292" height="20.1864" />
<rect x="11.6418" y="0.0000" width="1.0583" height="20.1864" />
<rect x="13.2293" y="0.0000" width="1.0583" height="20.1864" />
<rect x="14.8169" y="0.0000" width="1.0583" height="20.1864" />
<rect x="17.4627" y="0.0000" width="1.0583" height="20.1864" />
<rect x="20.1086" y="0.0000" width="1.5875" height="20.1864" />
<rect x="22.2253" y="0.0000" width="0.5292" height="20.1864" />
<rect x="23.2837" y="0.0000" width="1.0583" height="20.1864" />
</g>
<g fill="rgb(0%,0%,0%)">
<text x="12.1710" y="25.2821" transform="rotate(360 12.1710,25.2821)" text-anchor="middle" font-family="Arial" font-size="5.6444" >=</text>
</g>
</svg>
